<svg id="Layer_1" data-name="Layer 1" xmlns="http://www.w3.org/2000/svg" viewBox="0 0 451.37 233.99"><defs><style>.cls-1{fill:#fff;}</style></defs><path class="cls-1" d="M431.94,1.4,261.08,84.72l8.66,25.82,148-72.18c-5.22,19.51-13.21,46.88-23.34,74C372.31,171.49,348,206.85,329.24,207h-.08c-11.25,0-24.71-13.49-37.92-38a344.65,344.65,0,0,1-18.8-42.52s0-.09-.05-.13q-2.61-7-5.21-14.53l-8.37-26q-3.17-10.42-6.3-21.69c-.06-.2-.12-.4-.17-.61l-.15-.51q-3.54-12.77-7-26.61a27.23,27.23,0,0,0-32.61-19.8q10.67,45.55,21.67,81.21l-25.55,12.46C182.51,35.54,154.37,0,122.23,0H122C89.3.23,59.74,37,31.59,112.42c-9.7,26-17.39,51.73-22.72,71.25S.57,216.47.34,217.55a13.5,13.5,0,0,0,19.09,15l169.68-82.74-8.39-26L33.63,195.64c5.2-19.44,13.15-46.69,23.26-73.78C79,62.6,103.39,27.15,122.13,27h.08c11.25,0,24.71,13.49,37.92,38Q171.7,86.46,183,118.88l1.09,3.37,8.4,25.95.82,2.54q6.49,21.64,12.88,46.85a27.23,27.23,0,0,0,32.61,19.8q-10.67-45.55-21.67-81.21l25.55-12.46C268.87,198.46,297,234,329.14,234h.27c32.66-.2,62.22-37,90.37-112.39,9.69-26,17.39-51.73,22.72-71.25s8.3-32.8,8.54-33.88A13.5,13.5,0,0,0,431.94,1.4Z"/><path class="cls-1" d="M272.39,126.32c-1.56-3.92-3.35-9-5.21-14.53Q269.78,119.33,272.39,126.32Z"/></svg>